<?xml version="1.0" encoding="UTF-8"?>
<!DOCTYPE svg PUBLIC "-//W3C//DTD SVG 1.1//EN" "http://www.w3.org/Graphics/SVG/1.1/DTD/svg11.dtd">
<svg xmlns="http://www.w3.org/2000/svg" version="1.1" width="1308px" height="706px" style="shape-rendering:geometricPrecision; text-rendering:geometricPrecision; image-rendering:optimizeQuality; fill-rule:evenodd; clip-rule:evenodd" xmlns:xlink="http://www.w3.org/1999/xlink">
<g><path style="opacity:0.979" fill="#001031" d="M 499.5,-0.5 C 511.5,-0.5 523.5,-0.5 535.5,-0.5C 551.948,2.85013 567.948,8.35013 583.5,16C 588.303,19.1466 592.803,22.6466 597,26.5C 610.117,18.5751 623.617,11.4084 637.5,5C 644.282,3.05113 650.949,1.21779 657.5,-0.5C 671.167,-0.5 684.833,-0.5 698.5,-0.5C 736.44,6.93468 764.607,27.9347 783,62.5C 784.903,65.1706 785.736,68.1706 785.5,71.5C 775.371,70.3565 765.371,68.6898 755.5,66.5C 740.685,50.6055 723.352,38.4389 703.5,30C 676.315,22.4768 651.315,26.8101 628.5,43C 620.355,49.3106 612.355,55.8106 604.5,62.5C 600.068,66.4844 595.735,66.3177 591.5,62C 563.916,31.3522 530.249,21.3522 490.5,32C 476.225,36.9271 464.058,45.0937 454,56.5C 427.504,86.9926 422.838,120.659 440,157.5C 447.066,170.63 454.399,183.63 462,196.5C 496.929,232.471 533.762,265.971 572.5,297C 580.951,302.891 589.951,307.725 599.5,311.5C 609.973,307.408 619.307,301.408 627.5,293.5C 629.167,292.167 630.833,292.167 632.5,293.5C 633.913,299.755 636.079,305.755 639,311.5C 639.498,314.817 639.665,318.15 639.5,321.5C 632.715,326.76 625.715,331.927 618.5,337C 611.231,340.46 603.564,341.793 595.5,341C 588.263,339.196 581.596,336.196 575.5,332C 544.233,311.199 514.233,288.699 485.5,264.5C 461.614,242.118 440.447,217.451 422,190.5C 409.484,167.28 402.65,142.447 401.5,116C 403.112,63.0883 428.112,26.0883 476.5,5C 484.263,2.92873 491.93,1.0954 499.5,-0.5 Z"/></g>
<g><path style="opacity:0.987" fill="#fabb4c" d="M 601.5,86.5 C 600.506,95.9856 600.173,105.652 600.5,115.5C 599.662,115.842 599.328,116.508 599.5,117.5C 598.11,118.899 597.11,120.566 596.5,122.5C 595.143,123.59 594.143,124.924 593.5,126.5C 592.523,123.713 592.19,120.713 592.5,117.5C 593.833,117.5 595.167,117.5 596.5,117.5C 596.666,113.154 596.499,108.821 596,104.5C 594.387,103.378 593.22,103.878 592.5,106C 591.552,106.483 590.552,106.649 589.5,106.5C 590.045,104.407 590.878,102.407 592,100.5C 592.167,98.1667 592.333,95.8333 592.5,93.5C 591.829,88.1616 591.162,82.8283 590.5,77.5C 596.252,77.9165 599.919,80.9165 601.5,86.5 Z"/></g>
<g><path style="opacity:1" fill="#f27c47" d="M 619.5,86.5 C 621.861,88.1939 623.861,90.1939 625.5,92.5C 624.506,102.987 624.172,113.654 624.5,124.5C 622.413,126.599 620.08,128.265 617.5,129.5C 617.954,126.86 619.121,124.527 621,122.5C 622.03,110.388 621.53,98.3879 619.5,86.5 Z"/></g>
<g><path style="opacity:0.523" fill="#f0533b" d="M 601.5,86.5 C 605.098,90.2805 606.765,94.9471 606.5,100.5C 606.509,105.124 605.509,109.458 603.5,113.5C 602.167,113.5 601.5,114.167 601.5,115.5C 601.167,115.5 600.833,115.5 600.5,115.5C 600.173,105.652 600.506,95.9856 601.5,86.5 Z"/></g>
<g><path style="opacity:0.75" fill="#ec4337" d="M 625.5,92.5 C 631.304,100.653 632.804,109.653 630,119.5C 628.296,121.373 626.463,123.04 624.5,124.5C 624.172,113.654 624.506,102.987 625.5,92.5 Z"/></g>
<g><path style="opacity:1" fill="#f9be58" d="M 619.5,86.5 C 621.53,98.3879 622.03,110.388 621,122.5C 619.121,124.527 617.954,126.86 617.5,129.5C 612.421,133.231 607.421,137.231 602.5,141.5C 601.507,133.35 601.174,125.017 601.5,116.5C 601.5,116.167 601.5,115.833 601.5,115.5C 602.833,115.5 603.5,114.833 603.5,113.5C 608.15,111.015 611.65,107.348 614,102.5C 613.057,95.9474 612.557,89.2808 612.5,82.5C 615.857,82.2159 618.191,83.5493 619.5,86.5 Z"/></g>
<g><path style="opacity:0.187" fill="#fdfaef" d="M 587.5,110.5 C 588.117,110.611 588.617,110.944 589,111.5C 589.667,116.5 589.667,121.5 589,126.5C 588.722,127.416 588.222,128.082 587.5,128.5C 586.883,128.389 586.383,128.056 586,127.5C 585.333,122.167 585.333,116.833 586,111.5C 586.383,110.944 586.883,110.611 587.5,110.5 Z"/></g>
<g><path style="opacity:0.982" fill="#001031" d="M 747.5,119.5 C 758.448,123.801 762.281,131.801 759,143.5C 757.692,145.641 756.192,147.641 754.5,149.5C 765.521,153.016 773.854,159.849 779.5,170C 785.744,173.524 792.077,176.857 798.5,180C 802.552,182.85 805.885,186.35 808.5,190.5C 813.354,171.644 825.521,161.311 845,159.5C 867.618,162.282 879.784,174.949 881.5,197.5C 880.772,214.629 872.439,226.296 856.5,232.5C 854.675,238.016 850.841,241.349 845,242.5C 834.244,239.046 831.411,232.379 836.5,222.5C 840.393,220 844.726,218.834 849.5,219C 862.189,215.104 868.022,206.604 867,193.5C 862.616,178.586 852.782,172.752 837.5,176C 830.93,178.903 826.43,183.736 824,190.5C 824.429,200.699 821.929,210.033 816.5,218.5C 811.012,223.821 805.679,229.321 800.5,235C 791.966,240.719 782.633,244.719 772.5,247C 782.036,254.036 790.036,262.536 796.5,272.5C 796.392,273.442 796.059,274.275 795.5,275C 764.167,275.667 732.833,275.667 701.5,275C 700.424,273.274 700.257,271.441 701,269.5C 707.902,259.265 716.736,251.098 727.5,245C 706.903,239.061 688.236,229.227 671.5,215.5C 655.367,200.19 637.701,187.024 618.5,176C 610.689,172.835 602.689,170.168 594.5,168C 592.686,165.519 592.02,162.685 592.5,159.5C 600.07,157.695 607.737,157.195 615.5,158C 626.642,163.486 637.975,168.486 649.5,173C 660.727,176.883 672.227,179.716 684,181.5C 695.838,180.007 706.671,176.007 716.5,169.5C 722.335,159.851 730.501,153.184 741,149.5C 741.667,148.833 741.667,148.167 741,147.5C 739.686,146.687 738.519,145.687 737.5,144.5C 736.167,139.167 736.167,133.833 737.5,128.5C 739.68,124.099 743.013,121.099 747.5,119.5 Z"/></g>
<g><path style="opacity:0.412" fill="#fdd685" d="M 593.5,126.5 C 593.01,129.655 592.344,132.655 591.5,135.5C 590.178,135.67 589.011,135.337 588,134.5C 587.505,132.527 587.338,130.527 587.5,128.5C 588.222,128.082 588.722,127.416 589,126.5C 589.667,121.5 589.667,116.5 589,111.5C 588.617,110.944 588.117,110.611 587.5,110.5C 587.66,108.847 588.326,107.514 589.5,106.5C 590.552,106.649 591.552,106.483 592.5,106C 593.22,103.878 594.387,103.378 596,104.5C 596.499,108.821 596.666,113.154 596.5,117.5C 595.167,117.5 593.833,117.5 592.5,117.5C 592.19,120.713 592.523,123.713 593.5,126.5 Z"/></g>
<g><path style="opacity:1" fill="#fddea0" d="M 601.5,116.5 C 601.174,125.017 601.507,133.35 602.5,141.5C 601.833,142.833 600.833,143.833 599.5,144.5C 597.848,137.39 596.848,130.057 596.5,122.5C 597.11,120.566 598.11,118.899 599.5,117.5C 600.167,117.167 600.833,116.833 601.5,116.5 Z"/></g>
<g><path style="opacity:0.679" fill="#fdf7e7" d="M 596.5,122.5 C 596.848,130.057 597.848,137.39 599.5,144.5C 598.833,147.5 598.167,150.5 597.5,153.5C 595.833,153.5 594.167,153.5 592.5,153.5C 592.64,147.464 592.307,141.464 591.5,135.5C 592.344,132.655 593.01,129.655 593.5,126.5C 594.143,124.924 595.143,123.59 596.5,122.5 Z"/></g>
<g><path style="opacity:1" fill="#135d97" d="M 275.5,388.5 C 261.928,369.41 248.095,350.41 234,331.5C 232.333,326.833 230.667,322.167 229,317.5C 221.124,277.737 217.124,237.404 217,196.5C 215.55,190.689 213.55,185.022 211,179.5C 205.9,174.403 201.567,168.736 198,162.5C 197.17,156.472 197.336,150.472 198.5,144.5C 203.441,135.941 210.774,133.108 220.5,136C 231.519,141.771 238.019,150.937 240,163.5C 242.855,210.038 248.855,256.038 258,301.5C 260.806,307.576 263.806,313.576 267,319.5C 280.383,336.215 293.383,353.215 306,370.5C 306.743,372.441 306.576,374.274 305.5,376C 297.53,379.433 289.864,383.433 282.5,388C 280.19,388.497 277.857,388.663 275.5,388.5 Z"/></g>
<g><path style="opacity:1" fill="#135d97" d="M 1031.5,330.5 C 1029.82,331.183 1029.16,332.517 1029.5,334.5C 1015.99,352.286 1002.33,370.12 988.5,388C 986.098,388.814 983.765,388.647 981.5,387.5C 974.352,383.451 967.019,379.785 959.5,376.5C 959.167,375.5 958.833,374.5 958.5,373.5C 959.064,371.091 959.897,368.758 961,366.5C 973.514,349.481 986.514,332.815 1000,316.5C 1003.49,308.428 1006.49,300.095 1009,291.5C 1013.93,260.728 1018.26,229.728 1022,198.5C 1022.22,183.312 1023.88,168.312 1027,153.5C 1032.79,140.53 1042.63,134.696 1056.5,136C 1063.99,139.651 1067.66,145.651 1067.5,154C 1067.53,157.59 1067.03,161.09 1066,164.5C 1062.88,169.244 1059.22,173.577 1055,177.5C 1052.05,183.325 1049.72,189.325 1048,195.5C 1047.21,232.574 1043.88,269.24 1038,305.5C 1035.86,313.799 1033.69,322.132 1031.5,330.5 Z"/></g>
<g><path style="opacity:1" fill="#135d97" d="M 275.5,388.5 C 271.168,397.202 264.168,402.869 254.5,405.5C 240.74,400.978 226.74,397.144 212.5,394C 198.875,375.038 186.042,355.538 174,335.5C 169.016,323.077 167.183,310.077 168.5,296.5C 170.702,260.206 171.868,223.873 172,187.5C 172.833,183.5 173.667,179.5 174.5,175.5C 181.644,165.285 190.31,163.785 200.5,171C 209.444,179.609 214.277,190.109 215,202.5C 215.057,242.335 219.057,281.668 227,320.5C 230.781,328.724 235.115,336.724 240,344.5C 249.077,356.322 257.911,368.322 266.5,380.5C 269.223,383.56 272.223,386.227 275.5,388.5 Z"/></g>
<g><path style="opacity:1" fill="#135d97" d="M 1029.5,334.5 C 1031.18,333.817 1031.84,332.483 1031.5,330.5C 1033.1,329.263 1034.26,327.596 1035,325.5C 1037.6,317.145 1039.93,308.812 1042,300.5C 1047.08,267.093 1049.75,233.426 1050,199.5C 1051.07,186.528 1056.9,176.361 1067.5,169C 1077.53,164.32 1085.36,166.82 1091,176.5C 1091.43,182.527 1092.09,188.527 1093,194.5C 1093.16,230.867 1094.32,267.2 1096.5,303.5C 1096.5,312.023 1095.33,320.356 1093,328.5C 1090.02,336.476 1086.35,344.142 1082,351.5C 1072.34,364.822 1063.17,378.489 1054.5,392.5C 1046.44,393.878 1038.44,395.711 1030.5,398C 1023.54,400.655 1016.54,403.155 1009.5,405.5C 1003.24,403.033 997.573,399.533 992.5,395C 991.552,394.517 990.552,394.351 989.5,394.5C 989.343,393.127 989.51,391.793 990,390.5C 1001.09,375.311 1012.43,360.311 1024,345.5C 1026.55,342.14 1028.38,338.474 1029.5,334.5 Z"/></g>
<g><path style="opacity:1" fill="#135d97" d="M 308.5,436.5 C 294.846,429.495 281.512,421.662 268.5,413C 267.207,412.51 265.873,412.343 264.5,412.5C 264.5,410.167 264.5,407.833 264.5,405.5C 265.552,405.649 266.552,405.483 267.5,405C 282.442,392.381 298.442,381.547 315.5,372.5C 313.173,372.753 311.173,372.086 309.5,370.5C 296,352.833 282.5,335.167 269,317.5C 265.429,311.786 262.429,305.786 260,299.5C 250.433,253.43 244.6,206.763 242.5,159.5C 251.759,161.478 259.092,166.478 264.5,174.5C 271.641,187.25 276.475,200.916 279,215.5C 279.497,213.19 279.663,210.857 279.5,208.5C 290.27,209.273 299.104,213.94 306,222.5C 312.846,235.571 316.846,249.571 318,264.5C 320.675,274.538 324.342,284.205 329,293.5C 339.865,309.356 352.699,323.522 367.5,336C 374.362,338.836 381.362,341.169 388.5,343C 415.425,348.616 442.425,353.283 469.5,357C 535.287,372.104 580.454,411.271 605,474.5C 610.31,491.792 614.977,509.126 619,526.5C 621.038,537.027 621.871,547.694 621.5,558.5C 616.872,556.729 612.872,553.896 609.5,550C 589.285,535.646 566.951,526.98 542.5,524C 505.928,521.614 469.594,522.947 433.5,528C 420.511,531.03 407.511,533.697 394.5,536C 361.964,539.704 332.297,532.37 305.5,514C 286.876,499.378 268.543,484.378 250.5,469C 231.913,455.248 212.913,442.082 193.5,429.5C 186.595,421.437 186.928,413.604 194.5,406C 203.058,400.592 212.392,398.259 222.5,399C 231.115,400.584 239.448,402.918 247.5,406C 265.716,416.273 284.049,426.273 302.5,436C 304.473,436.495 306.473,436.662 308.5,436.5 Z M 280.5,219.5 C 281.933,221.914 282.433,224.581 282,227.5C 280.625,225.063 280.125,222.397 280.5,219.5 Z M 282.5,233.5 C 284.427,236.137 284.927,239.137 284,242.5C 282.851,239.607 282.351,236.607 282.5,233.5 Z M 284.5,246.5 C 285.222,246.918 285.722,247.584 286,248.5C 286.667,251.5 286.667,254.5 286,257.5C 284.663,253.974 284.163,250.308 284.5,246.5 Z M 295.5,301.5 C 294.057,300.665 293.057,299.332 292.5,297.5C 289.168,284.67 287.335,271.67 287,258.5C 289.667,272.841 292.501,287.174 295.5,301.5 Z M 295.5,301.5 C 311.249,321.103 326.915,340.937 342.5,361C 338.54,364.741 336.707,364.241 337,359.5C 324.758,344.013 312.758,328.347 301,312.5C 298.096,309.358 296.262,305.691 295.5,301.5 Z M 332.5,363.5 C 336.276,363.469 336.443,364.136 333,365.5C 331.316,365.317 331.15,364.65 332.5,363.5 Z M 328.5,365.5 C 329.043,365.56 329.376,365.893 329.5,366.5C 328.635,367.583 327.635,367.749 326.5,367C 327.416,366.722 328.082,366.222 328.5,365.5 Z M 320.5,370.5 C 321.204,368.656 322.537,368.156 324.5,369C 323.437,370.188 322.103,370.688 320.5,370.5 Z M 320.5,370.5 C 319.365,372.213 317.698,372.88 315.5,372.5C 316.552,370.744 318.219,370.077 320.5,370.5 Z M 406.5,423.5 C 408.379,423.393 408.712,423.893 407.5,425C 404.125,425.632 403.791,425.132 406.5,423.5 Z M 399.5,425.5 C 403.276,425.469 403.443,426.136 400,427.5C 398.316,427.317 398.15,426.65 399.5,425.5 Z M 384.5,430.5 C 389.814,430.239 390.314,430.906 386,432.5C 384.97,432.164 384.47,431.497 384.5,430.5 Z M 377.5,432.5 C 379.199,432.34 380.866,432.506 382.5,433C 380.728,434.487 378.728,434.82 376.5,434C 377.056,433.617 377.389,433.117 377.5,432.5 Z M 370.5,434.5 C 376.427,434.367 376.761,435.034 371.5,436.5C 370.5,436.333 369.5,436.167 368.5,436C 369.416,435.722 370.082,435.222 370.5,434.5 Z M 308.5,436.5 C 311.271,436.421 313.937,436.921 316.5,438C 314.167,438.667 311.833,438.667 309.5,438C 308.944,437.617 308.611,437.117 308.5,436.5 Z M 361.5,436.5 C 363.288,436.215 364.955,436.548 366.5,437.5C 363.894,438.652 361.227,438.818 358.5,438C 359.737,437.768 360.737,437.268 361.5,436.5 Z M 318.5,440.5 C 322.311,439.355 326.311,439.188 330.5,440C 326.586,441.529 322.586,441.696 318.5,440.5 Z M 342.5,440.5 C 346.646,439.353 350.98,439.186 355.5,440C 351.15,441.313 346.817,441.479 342.5,440.5 Z"/></g>
<g><path style="opacity:1" fill="#135d97" d="M 949.5,372.5 C 966.009,381.784 981.676,392.617 996.5,405C 997.448,405.483 998.448,405.649 999.5,405.5C 999.5,407.833 999.5,410.167 999.5,412.5C 986.766,419.366 974.1,426.533 961.5,434C 952.382,437.223 943.049,439.557 933.5,441C 937.167,441.667 940.833,441.667 944.5,441C 950.912,439.436 957.245,437.769 963.5,436C 979.057,427.706 994.391,419.039 1009.5,410C 1022.35,404.793 1035.68,400.96 1049.5,398.5C 1057.44,399.27 1064.61,401.937 1071,406.5C 1076.74,413.098 1077.41,420.098 1073,427.5C 1031.59,458.787 990.094,489.953 948.5,521C 924.959,534.105 899.625,539.105 872.5,536C 848.62,531.566 824.62,527.566 800.5,524C 787.623,523.609 774.789,522.776 762,521.5C 741.213,522.224 720.713,524.39 700.5,528C 679.965,533.271 661.965,543.271 646.5,558C 644.866,558.494 643.199,558.66 641.5,558.5C 644.79,515.834 656.624,475.834 677,438.5C 696.944,405.975 724.444,382.475 759.5,368C 774.381,363.35 789.381,359.017 804.5,355C 832.161,349.872 859.828,345.205 887.5,341C 891.2,339.792 894.533,337.959 897.5,335.5C 911.914,322.92 924.748,308.92 936,293.5C 940.538,284.88 943.871,275.88 946,266.5C 947.072,258.43 948.405,250.43 950,242.5C 953.308,230.531 959.808,220.698 969.5,213C 974.326,209.67 979.659,208.17 985.5,208.5C 981.355,239.167 975.689,269.5 968.5,299.5C 952.855,320.632 936.855,341.466 920.5,362C 922.677,363.202 925.011,363.702 927.5,363.5C 927.215,361.712 927.548,360.045 928.5,358.5C 941.816,340.685 955.316,323.018 969,305.5C 970.376,302.947 971.543,300.28 972.5,297.5C 977.873,264.147 983.706,230.813 990,197.5C 993.141,180.042 1002.64,167.542 1018.5,160C 1019.79,159.51 1021.13,159.343 1022.5,159.5C 1020,202.847 1014.83,245.847 1007,288.5C 1001.42,309.118 991.082,327.118 976,342.5C 968.913,351.913 962.247,361.579 956,371.5C 953.959,372.423 951.792,372.756 949.5,372.5 Z M 927.5,363.5 C 928.922,363.709 930.255,364.209 931.5,365C 929.648,365.773 928.314,365.273 927.5,363.5 Z M 944.5,370.5 C 942.571,370.769 940.905,370.269 939.5,369C 941.674,368.123 943.341,368.623 944.5,370.5 Z M 944.5,370.5 C 946.781,370.077 948.448,370.744 949.5,372.5C 947.302,372.88 945.635,372.213 944.5,370.5 Z M 856.5,424.5 C 857.497,423.287 858.497,423.454 859.5,425C 858.423,425.47 857.423,425.303 856.5,424.5 Z M 862.5,426.5 C 863.721,425.535 865.054,425.702 866.5,427C 865.072,427.579 863.738,427.412 862.5,426.5 Z M 875.5,431.5 C 876.708,430.218 878.042,430.218 879.5,431.5C 878.3,432.292 876.967,432.292 875.5,431.5 Z M 882.5,433.5 C 884.185,432.156 885.852,432.323 887.5,434C 885.735,434.64 884.068,434.473 882.5,433.5 Z M 889.5,435.5 C 891.517,434.126 893.517,434.293 895.5,436C 893.402,436.678 891.402,436.511 889.5,435.5 Z M 898.5,437.5 C 901.068,436.357 903.735,436.524 906.5,438C 903.739,438.722 901.073,438.555 898.5,437.5 Z M 910.5,440.5 C 914.646,439.353 918.98,439.186 923.5,440C 919.244,441.587 914.911,441.754 910.5,440.5 Z"/></g>
<g><path style="opacity:0.975" fill="#001031" d="M 678.5,564.5 C 694.053,562.481 708.72,564.981 722.5,572C 733.948,579.587 740.781,590.087 743,603.5C 743.667,618.5 743.667,633.5 743,648.5C 738.822,670.012 725.988,682.845 704.5,687C 688.599,689.495 673.599,687.161 659.5,680C 647.363,671.399 640.863,659.566 640,644.5C 639.333,632.167 639.333,619.833 640,607.5C 640.793,593.724 646.626,582.557 657.5,574C 664.302,570.263 671.302,567.097 678.5,564.5 Z M 684.5,587.5 C 691.425,586.966 698.092,587.8 704.5,590C 709.034,593.579 712.201,598.079 714,603.5C 714.833,618.844 714.666,634.178 713.5,649.5C 712.213,654.946 709.213,659.113 704.5,662C 695.739,665.493 687.072,665.327 678.5,661.5C 673.568,657.952 670.402,653.285 669,647.5C 668.333,633.167 668.333,618.833 669,604.5C 671.283,596.056 676.45,590.389 684.5,587.5 Z"/></g>
<g><path style="opacity:0.984" fill="#001031" d="M 1005.5,564.5 C 1024.53,561.563 1041.86,565.397 1057.5,576C 1065.25,581.829 1069.91,589.496 1071.5,599C 1071.25,601.394 1070.25,603.394 1068.5,605C 1060.83,605.667 1053.17,605.667 1045.5,605C 1042.35,600.608 1039.01,596.275 1035.5,592C 1024.51,586.041 1013.51,586.041 1002.5,592C 997.454,597.083 995.287,603.25 996,610.5C 995.333,620.833 995.333,631.167 996,641.5C 995.325,653.14 1000.49,660.64 1011.5,664C 1032.39,667.92 1043.39,659.42 1044.5,638.5C 1037.16,638.666 1029.83,638.5 1022.5,638C 1020.09,634.787 1019.09,631.12 1019.5,627C 1019.67,624.833 1019.83,622.667 1020,620.5C 1020.31,619.692 1020.81,619.025 1021.5,618.5C 1037.83,617.167 1054.17,617.167 1070.5,618.5C 1071.67,630.152 1071.83,641.819 1071,653.5C 1064.69,672.142 1051.86,683.308 1032.5,687C 1015.17,690.123 999.175,687.123 984.5,678C 975.822,671.144 970.322,662.311 968,651.5C 965.49,631.674 966.157,612.007 970,592.5C 973.264,585.157 978.097,578.99 984.5,574C 991.509,570.678 998.509,567.511 1005.5,564.5 Z"/></g>
<g><path style="opacity:0.976" fill="#001031" d="M 1307.5,598.5 C 1307.5,617.5 1307.5,636.5 1307.5,655.5C 1301.68,672.811 1289.68,683.311 1271.5,687C 1255.26,689.516 1239.93,687.182 1225.5,680C 1216,673.583 1210,664.75 1207.5,653.5C 1206.33,635.509 1206.17,617.509 1207,599.5C 1212.72,580.784 1225.22,569.284 1244.5,565C 1260.08,562.48 1274.75,564.814 1288.5,572C 1298.63,578.27 1304.96,587.103 1307.5,598.5 Z M 1250.5,587.5 C 1268.21,584.742 1278.38,592.076 1281,609.5C 1282.15,623.644 1281.48,637.644 1279,651.5C 1276.4,657.767 1271.9,661.933 1265.5,664C 1246.15,667.239 1235.65,659.072 1234,639.5C 1232.8,626.338 1233.63,613.338 1236.5,600.5C 1239.34,593.989 1244,589.655 1250.5,587.5 Z"/></g>
<g><path style="opacity:0.979" fill="#001031" d="M -0.5,655.5 C -0.5,636.167 -0.5,616.833 -0.5,597.5C 5.15541,579.301 17.4887,568.468 36.5,565C 52.4134,562.505 67.4134,564.838 81.5,572C 96.0855,580.394 102.419,592.894 100.5,609.5C 91.8269,609.666 83.1603,609.5 74.5,609C 72.7477,604.175 70.9144,599.342 69,594.5C 61.1026,587.86 51.936,585.694 41.5,588C 32.1842,591.101 27.0175,597.601 26,607.5C 25.3333,619.833 25.3333,632.167 26,644.5C 26.764,654.588 31.9307,661.088 41.5,664C 49.0807,665.07 56.4141,664.404 63.5,662C 69.6806,657.146 73.3472,650.813 74.5,643C 83.1603,642.5 91.8269,642.334 100.5,642.5C 102.419,659.106 96.0855,671.606 81.5,680C 61.884,689.216 41.884,689.882 21.5,682C 10.4867,676.094 3.15336,667.261 -0.5,655.5 Z"/></g>
<g><path style="opacity:0.941" fill="#001032" d="M 119.5,566.5 C 126.841,566.334 134.174,566.5 141.5,567C 142.333,567.833 143.167,568.667 144,569.5C 144.333,596.167 144.667,622.833 145,649.5C 148.776,659.721 156.109,664.721 167,664.5C 177.089,665.065 184.089,660.732 188,651.5C 189.241,624.19 189.907,596.857 190,569.5C 190.833,568.667 191.667,567.833 192.5,567C 199.833,566.333 207.167,566.333 214.5,567C 215.333,567.833 216.167,568.667 217,569.5C 217.667,595.5 217.667,621.5 217,647.5C 214.204,669.297 202.038,682.463 180.5,687C 164.569,689.54 149.569,687.207 135.5,680C 123.893,671.839 117.726,660.673 117,646.5C 116.333,620.833 116.333,595.167 117,569.5C 118.045,568.627 118.878,567.627 119.5,566.5 Z"/></g>
<g><path style="opacity:0.883" fill="#001033" d="M 242.5,566.5 C 250.223,566.2 257.89,566.533 265.5,567.5C 266.5,606.494 266.833,645.494 266.5,684.5C 257.474,687.128 248.474,687.128 239.5,684.5C 238.167,645.5 238.167,606.5 239.5,567.5C 240.791,567.737 241.791,567.404 242.5,566.5 Z"/></g>
<g><path style="opacity:0.96" fill="#001031" d="M 292.5,566.5 C 313.863,566.11 335.197,566.61 356.5,568C 377.154,573.653 388.32,587.153 390,608.5C 391.102,624.275 390.435,639.942 388,655.5C 383.713,670.788 373.88,680.288 358.5,684C 337.565,686.399 316.565,687.065 295.5,686C 293.779,685.261 292.113,684.427 290.5,683.5C 289.34,645.542 289.173,607.542 290,569.5C 290.698,568.309 291.531,567.309 292.5,566.5 Z M 317.5,589.5 C 327.506,589.334 337.506,589.5 347.5,590C 354,592.5 358.5,597 361,603.5C 361.833,618.844 361.666,634.178 360.5,649.5C 359.004,656.079 355.004,660.246 348.5,662C 338.172,662.5 327.839,662.666 317.5,662.5C 317.5,638.167 317.5,613.833 317.5,589.5 Z"/></g>
<g><path style="opacity:0.979" fill="#001031" d="M 441.5,566.5 C 449.84,566.334 458.173,566.5 466.5,567C 469,568.167 470.833,570 472,572.5C 485.345,607.258 498.678,641.924 512,676.5C 512.978,679.669 512.478,682.503 510.5,685C 502.77,687.114 495.103,686.947 487.5,684.5C 486.333,682.833 485.167,681.167 484,679.5C 482.322,673.971 480.489,668.471 478.5,663C 462.5,662.333 446.5,662.333 430.5,663C 428.231,668.385 426.065,673.885 424,679.5C 423.315,682.057 421.815,683.891 419.5,685C 413.585,686.527 407.585,686.861 401.5,686C 396.514,685.194 394.681,682.361 396,677.5C 410.304,641.62 424.304,605.62 438,569.5C 439.145,568.364 440.312,567.364 441.5,566.5 Z M 453.5,596.5 C 454.957,598.242 456.124,600.242 457,602.5C 461.063,615.299 465.563,627.965 470.5,640.5C 459.5,640.5 448.5,640.5 437.5,640.5C 443.65,626.044 448.983,611.378 453.5,596.5 Z"/></g>
<g><path style="opacity:0.974" fill="#001031" d="M 527.5,566.5 C 548.863,566.11 570.197,566.61 591.5,568C 614.478,574.729 625.644,590.229 625,614.5C 626.253,630.859 624.753,646.859 620.5,662.5C 614.478,674.026 605.145,681.193 592.5,684C 571.9,686.413 551.234,687.08 530.5,686C 528.04,685.604 526.04,684.437 524.5,682.5C 523.167,644.833 523.167,607.167 524.5,569.5C 525.548,568.452 526.548,567.452 527.5,566.5 Z M 552.5,589.5 C 562.506,589.334 572.506,589.5 582.5,590C 589.401,592.568 593.901,597.402 596,604.5C 596.667,619.167 596.667,633.833 596,648.5C 594.273,655.228 590.106,659.728 583.5,662C 573.172,662.5 562.839,662.666 552.5,662.5C 552.5,638.167 552.5,613.833 552.5,589.5 Z"/></g>
<g><path style="opacity:0.968" fill="#001031" d="M 803.5,566.5 C 824.863,566.11 846.197,566.61 867.5,568C 884.625,572.126 895.458,582.626 900,599.5C 900.43,608.337 900.93,617.171 901.5,626C 900.93,634.829 900.43,643.663 900,652.5C 895.887,668.945 885.72,679.445 869.5,684C 848.898,686.393 828.232,687.059 807.5,686C 805.22,685.767 803.22,684.934 801.5,683.5C 800.34,645.542 800.173,607.542 801,569.5C 801.698,568.309 802.531,567.309 803.5,566.5 Z M 827.5,589.5 C 837.839,589.334 848.172,589.5 858.5,590C 867.322,592.978 872.156,599.145 873,608.5C 874.182,623.37 873.515,638.037 871,652.5C 868.359,657.144 864.525,660.311 859.5,662C 848.839,662.5 838.172,662.667 827.5,662.5C 827.5,638.167 827.5,613.833 827.5,589.5 Z"/></g>
<g><path style="opacity:0.979" fill="#001031" d="M 923.5,566.5 C 931.223,566.2 938.89,566.533 946.5,567.5C 947.5,606.494 947.833,645.494 947.5,684.5C 938.526,687.128 929.526,687.128 920.5,684.5C 920.5,645.5 920.5,606.5 920.5,567.5C 921.791,567.737 922.791,567.404 923.5,566.5 Z"/></g>
<g><path style="opacity:0.952" fill="#001031" d="M 1093.5,566.5 C 1099.84,566.334 1106.18,566.5 1112.5,567C 1113.42,567.374 1114.25,567.874 1115,568.5C 1130.02,591.671 1145.19,614.671 1160.5,637.5C 1160.19,615.1 1160.52,592.433 1161.5,569.5C 1162.29,568.758 1162.95,567.925 1163.5,567C 1170.88,566.201 1178.22,566.368 1185.5,567.5C 1186.83,606.5 1186.83,645.5 1185.5,684.5C 1178.18,687.118 1170.85,687.118 1163.5,684.5C 1147.85,661.353 1132.02,638.353 1116,615.5C 1116.64,637.755 1116.64,660.088 1116,682.5C 1115.5,683.667 1114.67,684.5 1113.5,685C 1107.9,686.456 1102.24,686.789 1096.5,686C 1093.97,685.484 1091.8,684.317 1090,682.5C 1089.17,644.829 1089.33,607.162 1090.5,569.5C 1091.55,568.452 1092.55,567.452 1093.5,566.5 Z"/></g>
</svg>
